<?xml version="1.0" encoding="UTF-8"?>
<svg xmlns="http://www.w3.org/2000/svg" xmlns:xlink="http://www.w3.org/1999/xlink" width="240px" height="240px" viewBox="0 0 240 240" version="1.1">
<g id="surface1">
<path style="fill:none;stroke-width:4;stroke-linecap:butt;stroke-linejoin:round;stroke:rgb(0%,0%,0%);stroke-opacity:1;stroke-miterlimit:10;" d="M 63.019973 200.611702 L 19.806706 25.669572 L 193.03625 75.544946 Z M 63.019973 200.611702 " transform="matrix(1.058341,0,0,1.058341,9.486969,4.500807)"/>
<path style="fill:none;stroke-width:4;stroke-linecap:butt;stroke-linejoin:round;stroke:rgb(0%,0%,0%);stroke-opacity:1;stroke-miterlimit:10;" d="M 106.388259 50.612796 L 127.980129 138.109697 L 41.413339 113.162782 Z M 106.388259 50.612796 " transform="matrix(1.058341,0,0,1.058341,9.486969,4.500807)"/>
<path style="fill:none;stroke-width:4;stroke-linecap:butt;stroke-linejoin:round;stroke:rgb(0%,0%,0%);stroke-opacity:1;stroke-miterlimit:10;" d="M 84.910808 125.029084 L 74.185 81.564834 L 117.195267 93.910954 Z M 84.910808 125.029084 " transform="matrix(1.058341,0,0,1.058341,9.486969,4.500807)"/>
<path style="fill:none;stroke-width:4;stroke-linecap:butt;stroke-linejoin:round;stroke:rgb(0%,0%,0%);stroke-opacity:1;stroke-miterlimit:10;" d="M 63.459192 38.152257 L 74.181309 81.616507 L 31.174733 69.270386 Z M 63.459192 38.152257 " transform="matrix(1.058341,0,0,1.058341,9.486969,4.500807)"/>
<path style="fill:none;stroke-width:4;stroke-linecap:butt;stroke-linejoin:round;stroke:rgb(0%,0%,0%);stroke-opacity:1;stroke-miterlimit:10;" d="M 149.468654 62.929389 L 160.194461 106.393639 L 117.184194 94.047518 Z M 149.468654 62.929389 " transform="matrix(1.058341,0,0,1.058341,9.486969,4.500807)"/>
<path style="fill:none;stroke-width:4;stroke-linecap:butt;stroke-linejoin:round;stroke:rgb(0%,0%,0%);stroke-opacity:1;stroke-miterlimit:10;" d="M 84.914499 125.058611 L 95.640306 168.526552 L 52.630039 156.180431 Z M 84.914499 125.058611 " transform="matrix(1.058341,0,0,1.058341,9.486969,4.500807)"/>
</g>
</svg>
